<svg xmlns="http://www.w3.org/2000/svg" width="42.77" height="53.991" viewBox="0 0 42.77 53.991">
  <g id="Layer_2" data-name="Layer 2" transform="translate(0 -0.009)">
    <g id="Layer_1" data-name="Layer 1">
      <path id="Path_3" data-name="Path 3" d="M12.94,29.42c.2-3.71-3.52-3.07-3.8,2.11C8.77,38.63,14.69,44.66,22.37,45c3.66.16,5.86-2,3.79-2.11C18.48,42.56,12.56,36.52,12.94,29.42Z" fill="#fff"/>
      <path id="Path_4" data-name="Path 4" d="M21.39,54A21.43,21.43,0,0,1,0,32.63C0,21.46,17.75,2.76,19.77.66A2.33,2.33,0,0,1,23,.66c2,2.1,19.77,20.8,19.77,32A21.43,21.43,0,0,1,21.39,54Zm0-48.52C15.44,12,4.3,25.54,4.3,32.77a17.1,17.1,0,0,0,34.19,0c0-7.23-11.14-20.77-17.1-27.25Z" fill="#fff"/>
    </g>
  </g>
</svg>
