<svg xmlns="http://www.w3.org/2000/svg" width="61.4" height="61.4" viewBox="0 0 61.4 61.4">
  <g id="Layer_2" data-name="Layer 2" transform="translate(0.01 0.01)">
    <g id="Layer_1" data-name="Layer 1">
      <path id="Path_1" data-name="Path 1" d="M30.69,61.39a30.7,30.7,0,1,1,30.7-30.7,30.7,30.7,0,0,1-30.7,30.7Zm0-56.76A26.06,26.06,0,1,0,56.76,30.693,26.06,26.06,0,0,0,30.69,4.63Z" fill="#fff"/>
      <path id="Path_2" data-name="Path 2" d="M30.67,43.49a1.34,1.34,0,0,1-.4-.07C29.76,43.23,18,38.66,18,29.55c0-3.48,3.11-6.32,6.94-6.32a7.94,7.94,0,0,1,5.89,3.31,7.1,7.1,0,0,1,5.52-3.31c3.8,0,6.89,2.81,6.89,6.27,0,9.27-11.67,13.74-12.17,13.92a1.4,1.4,0,0,1-.4.07Z" fill="#fff"/>
    </g>
  </g>
</svg>
