<svg id="Layer_2" data-name="Layer 2" xmlns="http://www.w3.org/2000/svg" xmlns:xlink="http://www.w3.org/1999/xlink" width="51.941" height="51.901" viewBox="0 0 51.941 51.901">
  <defs>
    <clipPath id="clip-path">
      <path id="Path_5" data-name="Path 5" d="M0,10.32C0,7,.89,4.44,2.66,2.67S7,0,10.33,0C20.78,0,37.52,9.19,43.71,15.38A20.05,20.05,0,1,1,15.35,43.73C9.17,37.54,0,20.78,0,10.32ZM45.23,29.66a15.85,15.85,0,0,0-4.61-11.24C35.06,12.81,19.28,4.2,10.33,4.2c-2.12,0-3.66.48-4.59,1.41s-1.4,2.51-1.4,4.66c0,9.05,8.52,25,14.09,30.63a15.6,15.6,0,0,0,22.2,0,15.86,15.86,0,0,0,4.6-11.24Z" fill="#fff"/>
    </clipPath>
  </defs>
  <g id="Layer_1" data-name="Layer 1">
    <g id="Mask_Group_1" data-name="Mask Group 1" clip-path="url(#clip-path)">
      <g id="Layer_2-2" data-name="Layer 2" transform="translate(0 0.032)">
        <g id="Layer_1-2" data-name="Layer 1">
          <path id="Path_11" data-name="Path 11" d="M0,9.851c0-3.169.85-5.613,2.539-7.3S6.682,0,9.86,0c9.975,0,25.954,8.772,31.863,14.681A19.139,19.139,0,1,1,14.652,41.742C8.753,35.834,0,19.836,0,9.851ZM43.174,28.312a15.13,15.13,0,0,0-4.4-10.729C33.466,12.228,18.4,4.009,9.86,4.009A6.045,6.045,0,0,0,5.479,5.355c-.888.888-1.336,2.4-1.336,4.448,0,8.639,8.133,23.864,13.45,29.238a14.891,14.891,0,0,0,21.191,0,15.139,15.139,0,0,0,4.391-10.729Z" fill="#fff"/>
          <path id="Path_12" data-name="Path 12" d="M2.959,4.572A2.071,2.071,0,0,1,6.5,3.112l42.477,42.9a2.072,2.072,0,1,1-2.94,2.921L3.56,6.033a2.081,2.081,0,0,1-.6-1.46Z" fill="#fff"/>
          <path id="Path_13" data-name="Path 13" d="M29,28.913V14.261a2.014,2.014,0,1,1,4.019,0V28.913a2.014,2.014,0,1,1-4.019,0Z" fill="#fff"/>
          <path id="Path_14" data-name="Path 14" d="M10.319,24.818a2.1,2.1,0,0,1,2.2-1.976h9.851a1.985,1.985,0,1,1,0,3.952H12.514a2.1,2.1,0,0,1-2.2-1.976Z" fill="#fff"/>
          <path id="Path_15" data-name="Path 15" d="M16.533,16.227V8.266a2,2,0,1,1,3.971,0v7.961a2,2,0,1,1-3.971,0Z" fill="#fff"/>
          <path id="Path_16" data-name="Path 16" d="M20.761,37.227a2.033,2.033,0,0,1,2.148-1.909H37.227a1.909,1.909,0,0,1,0,3.818H22.909A2.033,2.033,0,0,1,20.761,37.227Z" fill="#fff"/>
        </g>
      </g>
    </g>
    <path id="Path_6" data-name="Path 6" d="M3.1,4.79A2.17,2.17,0,0,1,6.81,3.26L51.31,48.2a2.171,2.171,0,1,1-3.08,3.06L3.73,6.32A2.18,2.18,0,0,1,3.1,4.79Z" fill="#fff"/>
    <path id="Path_7" data-name="Path 7" d="M30.38,30.29V14.94a2.11,2.11,0,1,1,4.21,0V30.29a2.11,2.11,0,1,1-4.21,0Z" fill="#fff"/>
    <path id="Path_8" data-name="Path 8" d="M10.81,26a2.2,2.2,0,0,1,2.3-2.07H23.43a2.08,2.08,0,1,1,0,4.14H13.11A2.2,2.2,0,0,1,10.81,26Z" fill="#fff"/>
    <path id="Path_9" data-name="Path 9" d="M17.32,17V8.66a2.09,2.09,0,1,1,4.16,0V17a2.09,2.09,0,1,1-4.16,0Z" fill="#fff"/>
    <path id="Path_10" data-name="Path 10" d="M21.75,39A2.13,2.13,0,0,1,24,37H39a2,2,0,0,1,0,4H24A2.13,2.13,0,0,1,21.75,39Z" fill="#fff"/>
  </g>
</svg>
