<svg xmlns="http://www.w3.org/2000/svg" width="166.719" height="150.951" viewBox="0 0 166.719 150.951">
  <g id="delivery-biker" transform="translate(10.094)">
    <path id="Path_8428" data-name="Path 8428" d="M934.817,333.262c0,1.664-15.445,3.014-34.5,3.014s-34.5-1.35-34.5-3.014,15.445-3.014,34.5-3.014S934.817,331.6,934.817,333.262Z" transform="translate(-875.914 -185.324)" fill="#61b0bc"/>
    <path id="Path_8429" data-name="Path 8429" d="M934.817,333.262c0,1.664-15.445,3.014-34.5,3.014s-34.5-1.35-34.5-3.014,15.445-3.014,34.5-3.014S934.817,331.6,934.817,333.262Z" transform="translate(-778.191 -185.324)" fill="#61b0bc"/>
    <path id="Path_5261" data-name="Path 5261" d="M4930.7,1206.533a8.323,8.323,0,0,0,.546-3.147,3.1,3.1,0,0,1,1.751-2.831c.943-.456,2.025-.8,2.689-.46,1.232.639,1.021,2.242,2.178,3.41.5.509,8.776,2.611,9.06,3.4.47,1.313-13.513,4.4-16.129,3.611C4929.426,1210.1,4929.947,1208.441,4930.7,1206.533Z" transform="translate(-4873.822 -1069.651)" fill="#503629"/>
    <path id="Path_5262" data-name="Path 5262" d="M4934.646,1225.818l11.363-2.557a2.417,2.417,0,0,1,2.889,1.827h0a2.417,2.417,0,0,1-1.828,2.889l-11.363,2.557a2.416,2.416,0,0,1-2.888-1.827h0A2.417,2.417,0,0,1,4934.646,1225.818Z" transform="translate(-4875.868 -1086.547)" fill="#2a0f00"/>
    <g id="Group_1885" data-name="Group 1885" transform="translate(-6.196 0)">
      <g id="Group_1872" data-name="Group 1872" transform="translate(27.152 59.252)">
        <path id="Path_5263" data-name="Path 5263" d="M4811.756,944.763c8.905,3.189,20.021,2.785,20.021,2.785s17.77-.246,24.067,9.749c5.844,9.276-15.626,34.707-16.121,39.819s-3.219,4.832-7.76,2.029,10.511-31.682,9.437-33.551c-3.068-5.339-37.335,1.928-39.649-11.813a45.56,45.56,0,0,1,0-13.909A48.794,48.794,0,0,0,4811.756,944.763Z" transform="translate(-4801.221 -939.872)" fill="#008675"/>
        <path id="Path_5264" data-name="Path 5264" d="M4810.437,968.3c9.9,3.848,26.892,4.108,32.017,7.654,9.412,6.513-1.2,19.325-4.786,28-1.4,3.371-4.138,7.5-3.846,11.639-.58-.292-1.2-.644-1.858-1.05-4.54-2.8,10.511-31.682,9.437-33.551-3.068-5.339-37.335,1.928-39.649-11.813a42.784,42.784,0,0,1-.513-8.12C4802.59,963.369,4805.243,966.278,4810.437,968.3Z" transform="translate(-4801.22 -955.272)" fill="#008675"/>
      </g>
      <path id="Path_5265" data-name="Path 5265" d="M5054.222,933.675a5.121,5.121,0,0,1,3.958-1.7c2.31.22,3.9.5,3.243,2.146s-2.418,2.2-4.177,2.087S5050.758,936.2,5054.222,933.675Z" transform="translate(-4957.053 -874.864)" fill="#ad263d"/>
      <path id="Path_5266" data-name="Path 5266" d="M4915.158,882.363s-2.033,12.852.5,15.711,25.211-2.712,29.944,0c1.564.9-7.5,13.825-22.566,14.541s-28.065-10.75-26.27-15.7S4915.158,882.363,4915.158,882.363Z" transform="translate(-4843.387 -838.822)" fill="#ad263d"/>
      <path id="Path_5267" data-name="Path 5267" d="M4776.021,746.225c-2.278-2.6-21.323-20.887-28.243-23.022-8.081-2.493-20.725,16.791-24.848,24.214-6.39,11.507,20.257,31.5,28.391,31.865S4782.1,753.174,4776.021,746.225Z" transform="translate(-4716.454 -722.983)" fill="#84bd00"/>
      <g id="Group_1880" data-name="Group 1880" transform="translate(0 58.007)">
        <g id="Group_1873" data-name="Group 1873" transform="translate(2.715 38.195)">
          <path id="Path_5268" data-name="Path 5268" d="M4763.359,1100.92a25.794,25.794,0,1,0-25.795,25.794A25.824,25.824,0,0,0,4763.359,1100.92Zm-2.942,0a22.853,22.853,0,1,1-22.853-22.853A22.878,22.878,0,0,1,4760.417,1100.92Z" transform="translate(-4711.771 -1075.126)" fill="#503629"/>
        </g>
        <g id="Group_1877" data-name="Group 1877" transform="translate(99.97 38.195)">
          <g id="Group_1874" data-name="Group 1874" transform="translate(2.715)">
            <path id="Path_5269" data-name="Path 5269" d="M5129.3,1100.92a25.795,25.795,0,1,0-25.794,25.794A25.823,25.823,0,0,0,5129.3,1100.92Zm-2.941,0a22.853,22.853,0,1,1-22.853-22.853A22.878,22.878,0,0,1,5126.354,1100.92Z" transform="translate(-5077.706 -1075.126)" fill="#503629"/>
          </g>
          <g id="Group_1875" data-name="Group 1875">
            <path id="Path_5270" data-name="Path 5270" d="M5119.357,1100.92a25.795,25.795,0,1,0-25.795,25.794A25.824,25.824,0,0,0,5119.357,1100.92Zm-2.942,0a22.853,22.853,0,1,1-22.853-22.853A22.878,22.878,0,0,1,5116.416,1100.92Z" transform="translate(-5067.768 -1075.126)" fill="#2a0f00"/>
          </g>
          <g id="Group_1876" data-name="Group 1876" transform="translate(2.48 2.48)">
            <path id="Path_5271" data-name="Path 5271" d="M5123.475,1107.519a23.314,23.314,0,1,0-23.314,23.314A23.341,23.341,0,0,0,5123.475,1107.519Zm-2.036,0a21.278,21.278,0,1,1-21.278-21.278A21.3,21.3,0,0,1,5121.438,1107.519Z" transform="translate(-5076.846 -1084.204)" fill="#f1be48"/>
          </g>
        </g>
        <g id="Group_1878" data-name="Group 1878" transform="translate(0 38.195)">
          <path id="Path_5272" data-name="Path 5272" d="M4753.42,1100.92a25.794,25.794,0,1,0-25.794,25.794A25.824,25.824,0,0,0,4753.42,1100.92Zm-2.941,0a22.853,22.853,0,1,1-22.853-22.853A22.879,22.879,0,0,1,4750.479,1100.92Z" transform="translate(-4701.831 -1075.126)" fill="#2a0f00"/>
        </g>
        <g id="Group_1879" data-name="Group 1879" transform="translate(2.48 40.675)">
          <path id="Path_5273" data-name="Path 5273" d="M4757.538,1107.519a23.315,23.315,0,1,0-23.314,23.314A23.341,23.341,0,0,0,4757.538,1107.519Zm-2.037,0a21.278,21.278,0,1,1-21.278-21.278A21.3,21.3,0,0,1,4755.5,1107.519Z" transform="translate(-4710.909 -1084.204)" fill="#f1be48"/>
        </g>
        <path id="Path_5274" data-name="Path 5274" d="M4890.326,998.186a1.244,1.244,0,0,1-2.2.662l-4.411-5.4a1.246,1.246,0,0,1-.187-.312l-12.606-30.546-43.1,36.569-.01.012c-.02.027-.042.053-.064.078s-.037.039-.055.058-.038.037-.057.055l-.043.035c-.021.018-.045.035-.067.051l-.04.027c-.028.018-.057.035-.086.051l-.029.016a1.24,1.24,0,0,1-.262.1l-.018,0c-.038.009-.076.016-.115.021l-.048,0-.057.006-39.282,4.071h-.057a1.245,1.245,0,0,1-1.031-1.94l27.022-32.411-4.028-9.273a1.245,1.245,0,0,1,2.284-.992l3.842,8.848,52.153-13.041c-1.151-2.961,5.314-13.941,6.759-16.779a.241.241,0,0,0-.214-.35h-13.979a1.245,1.245,0,1,1,0-2.489h13.979a2.73,2.73,0,0,1,2.433,3.968c-1.15,2.258-7.561,12.572-6.593,14.915l15.606,37.817,4.295,5.258A1.234,1.234,0,0,1,4890.326,998.186Zm-65.34-.921-10.324-25.12-24.721,29Zm44.82-37.377-1.092-2.647-52.129,13.032,10.528,25.617Z" transform="translate(-4763.209 -935.316)" fill="#503629"/>
        <path id="Path_5275" data-name="Path 5275" d="M4926.679,1153.59a4.789,4.789,0,1,1-4.789-4.789A4.789,4.789,0,0,1,4926.679,1153.59Z" transform="translate(-4858.291 -1090.479)" fill="#2a0f00"/>
      </g>
      <g id="Group_1881" data-name="Group 1881" transform="translate(53.294 43.541)">
        <path id="Path_5276" data-name="Path 5276" d="M4896.912,897.185a2.494,2.494,0,0,1,.08-.268c1.795-4.948,18.4-14.555,18.4-14.555s-1.479,9.357-.342,13.879C4912.242,897.022,4904.532,898.79,4896.912,897.185Z" transform="translate(-4896.912 -882.363)" fill="#ff985f"/>
      </g>
      <path id="Path_5277" data-name="Path 5277" d="M4904.383,926.164a6.993,6.993,0,0,1-1.582,3.538c-4.426-3.279-6.89-7.079-6.04-9.42a5.681,5.681,0,0,1,.743-1.329l11.55-4.443S4904.713,923.09,4904.383,926.164Z" transform="translate(-4843.387 -862.187)" fill="#1e1240"/>
      <path id="Path_5278" data-name="Path 5278" d="M4842.747,1020c-4.591.659-15.8-.163-17.417-2.995s1.484-3.822,9.856-3.272,17.667,0,15.517,2.419S4847.337,1019.337,4842.747,1020Z" transform="translate(-4791.29 -934.195)" fill="#2a0f00"/>
      <path id="Path_5279" data-name="Path 5279" d="M4813.167,845.8a48.775,48.775,0,0,1-10-4.891c1.98-13.182,9.9-30.058,21.329-35.664,12.656-6.2,30.215,7.875,27.928,16.425-1.546,5.776-10.842,11.609-14.079,16.161a35.752,35.752,0,0,0-5.151,10.753S4822.072,848.992,4813.167,845.8Z" transform="translate(-4775.479 -781.661)" fill="#f1be48"/>
      <path id="Path_5280" data-name="Path 5280" d="M4935.838,814.931a2.618,2.618,0,0,1,.89,3.072c-.648,2.1-2.519,2.261-4.478,1.451s-4.917-5.572-4.376-7.093S4934.051,812.381,4935.838,814.931Z" transform="translate(-4866.075 -787.506)" fill="#fff"/>
      <path id="Path_5281" data-name="Path 5281" d="M4824.491,805.25a16.088,16.088,0,0,1,9.428-1.347c-3.032,2.114-8.208,7.963-11.626,15.514a146.294,146.294,0,0,0-8.341,26.656c-.263-.087-.525-.176-.784-.269a48.765,48.765,0,0,1-10-4.891C4805.142,827.732,4813.057,810.856,4824.491,805.25Z" transform="translate(-4775.479 -781.661)" fill="#ff9840"/>
      <path id="Path_5282" data-name="Path 5282" d="M4797.786,956.468c17.7,21.239,29.013,58.12,34.088,57.292,5.7-.93,10.5-2.359,6.16-11.942-3.721-8.212-5.667-50.38-19.39-54.574-6.679-2.042-15.373-4.053-21.316-7.293C4795.343,938.868,4793.433,951.244,4797.786,956.468Z" transform="translate(-4769.656 -880.628)" fill="#61b0bc"/>
      <path id="Path_5283" data-name="Path 5283" d="M4797.872,956.416c17.7,21.239,29.015,58.132,34.088,57.291a20.561,20.561,0,0,0,2.465-.488s-25.566-47.749-31.478-59.314c-3.179-6.219-.089-10.419-5.533-14.007C4795.526,938.654,4793.518,951.192,4797.872,956.416Z" transform="translate(-4769.741 -880.576)" fill="#008675"/>
      <path id="Path_5284" data-name="Path 5284" d="M4818.063,800.429s8.824,3.16,7.709,10.086-10.646,19.313-20.957,17.477c-8.026-1.429-9.6-6.758-9.6-6.758l-2.257,4.339s3.884,5.992,12.848,6.816,21.422-7.235,23.93-13.73S4831.169,799.578,4818.063,800.429Z" transform="translate(-4768.063 -779.242)" fill="#503629"/>
      <path id="Path_5285" data-name="Path 5285" d="M4861.109,850.918a119.529,119.529,0,0,0-.472,19.619c.394,4.529,5.952,16.729,14.877,18.652C4882.127,890.614,4861.109,850.918,4861.109,850.918Z" transform="translate(-4817.076 -815.967)" fill="#2a0f00"/>
      <path id="Path_5286" data-name="Path 5286" d="M4872.136,817.517c1.541-.11,3.508.3,5.388,4.681s.654,31.137,9.758,31.946,32.2-9.923,36.284-5.212-17.173,18.119-29.415,18.495-23.393-3.674-25.9-19.443S4863.644,818.123,4872.136,817.517Z" transform="translate(-4821.181 -791.681)" fill="#ff6161"/>
      <path id="Path_5287" data-name="Path 5287" d="M4870.854,907.481c-.441-2.78-.87-5.507-1.231-8.118a13.524,13.524,0,0,1,2.317.76c4.844,2.113,4.741,14.521,7.131,17.152s8.7,2.067,15.456,2.711,6.871.2,14.672-1.292,13.156-9.407,16.97-8.68a4.864,4.864,0,0,1,.488.12c-.683,5.624-18.919,16.453-29.9,16.79C4884.513,927.3,4873.36,923.25,4870.854,907.481Z" transform="translate(-4823.783 -851.178)" fill="#ad263d"/>
      <path id="Path_5288" data-name="Path 5288" d="M5068.02,929.59s3.948-1.629,5.138-.815,1.19,1.621,1.19,1.621,1.441,2.213,1.5,2.489-1.377,1.061-2.067.856-5.087.673-6.051-.33S5068.02,929.59,5068.02,929.59Z" transform="translate(-4967.506 -872.389)" fill="#ff6161"/>
      <g id="Group_1883" data-name="Group 1883" transform="translate(61.717 4.477)">
        <path id="Path_5289" data-name="Path 5289" d="M4934.092,777.782l-6.328,10.049c-.4,1.585,4.894,6.345,7.89,4.946.877-.409,3.034-10.19,3.034-10.19Z" transform="translate(-4927.742 -767.288)" fill="#ff6161"/>
        <path id="Path_5290" data-name="Path 5290" d="M4951.389,760.044l-3.949,5.542a4.152,4.152,0,0,0,1.323,5.637,11.472,11.472,0,0,0,4.786,1.707c1.831.338,3.265-1.073,3.988-3.386a22.642,22.642,0,0,0,.863-7.652C4958.2,758.2,4954.229,756.621,4951.389,760.044Z" transform="translate(-4941.627 -753.019)" fill="#ff6161"/>
        <path id="Path_5291" data-name="Path 5291" d="M4951.389,760.044l-3.949,5.542a4.152,4.152,0,0,0,1.323,5.637,11.472,11.472,0,0,0,4.786,1.707c1.831.338,3.265-1.073,3.988-3.386a22.642,22.642,0,0,0,.863-7.652C4958.2,758.2,4954.229,756.621,4951.389,760.044Z" transform="translate(-4941.627 -753.019)" fill="#ff6161"/>
        <path id="Path_5292" data-name="Path 5292" d="M4953.02,768.393a5.885,5.885,0,0,1,.265-1.232c.238-.765.415-1.958-.894-1.753-1.9.3-2.952,4.445-1.156,5.345C4952.567,771.421,4952.924,769.451,4953.02,768.393Z" transform="translate(-4944.143 -758.278)" fill="#ff6161"/>
        <path id="Path_5293" data-name="Path 5293" d="M4953.982,803.3l-4.229-1.162a11.914,11.914,0,0,0,3.4,4.372C4953.45,805.44,4953.737,804.305,4953.982,803.3Z" transform="translate(-4943.74 -784.99)" fill="#2a0f00"/>
        <g id="Group_1882" data-name="Group 1882" transform="translate(5.221 14.437)">
          <path id="Path_5294" data-name="Path 5294" d="M4949.647,794.731c-1.183-.381-2.291-1.959-2.784-2.514a4.138,4.138,0,0,0,1.905,3.767,11.466,11.466,0,0,0,4.786,1.707,2.88,2.88,0,0,0,2.809-1.115c-.542-.283-1.285-.562-1.785-.877C4953.564,795.057,4952.219,795.561,4949.647,794.731Z" transform="translate(-4946.854 -792.217)" fill="#ad263d"/>
        </g>
        <path id="Path_5295" data-name="Path 5295" d="M4943.515,749.367a2.765,2.765,0,0,1,2.879-1.83c1.619.255,3.727.492,5.039.7a.916.916,0,0,0,1.131-.626,8.169,8.169,0,0,0,.217-3.734c-.714-2.608-3.309-4.878-8.177-4.454a7.32,7.32,0,0,0-6.926,5.985c-.188,2.2.227,6.822,2.824,7.173C4942.446,752.844,4942.764,751.7,4943.515,749.367Z" transform="translate(-4934.936 -739.371)" fill="#f1be48"/>
        <path id="Path_5296" data-name="Path 5296" d="M4970.735,789a16.762,16.762,0,0,0,4.022.538,1.724,1.724,0,0,1-2.014,1.3A2.124,2.124,0,0,1,4970.735,789Z" transform="translate(-4958.99 -775.442)" fill="#fff"/>
        <path id="Path_5297" data-name="Path 5297" d="M4946.34,778.2c-.146.533-.552.886-.905.789s-.521-.608-.376-1.141.552-.886.906-.789S4946.487,777.669,4946.34,778.2Z" transform="translate(-4940.29 -766.753)" fill="#2a0f00"/>
      </g>
      <path id="Path_5298" data-name="Path 5298" d="M4884.858,921.267l-9.466,6.932a31,31,0,0,1-1.086-4.516l4.651-2.416Z" transform="translate(-4827.188 -867.097)" fill="#2a0f00"/>
      <g id="Group_1884" data-name="Group 1884" transform="translate(43.895 25.822)">
        <path id="Path_5299" data-name="Path 5299" d="M4869.568,817.517c1.541-.11,3.509.3,5.389,4.681,1.17,2.727,1.137,14.134,3.144,22.548-2.056,1.291-7.652,4.778-13.169,4.942-.034-.19-4.275-18.928-1.458-27.49A6.768,6.768,0,0,1,4869.568,817.517Z" transform="translate(-4862.508 -817.503)" fill="#f1be48"/>
      </g>
      <path id="Path_5300" data-name="Path 5300" d="M4871.031,848.684a19.375,19.375,0,0,1-6.1,1.314c-.034-.19-4.275-18.927-1.458-27.49a6.68,6.68,0,0,1,5.3-4.579c-.9,2.869-2.958,10.292-1.915,14.879C4867.789,836.894,4869.883,844.548,4871.031,848.684Z" transform="translate(-4818.613 -791.991)" fill="#ff9840"/>
    </g>
    <g id="Group_1886" data-name="Group 1886" transform="translate(7.6 10.686)">
      <path id="Tracciato_1" data-name="Tracciato 1" d="M4806.573,852.014" transform="translate(-4791.754 -827.45)" fill="#fff"/>
      <g id="Raggruppa_1" data-name="Raggruppa 1" transform="translate(21.955 17.825)">
        <path id="Tracciato_2" data-name="Tracciato 2" d="M4832.806,830.85a.234.234,0,0,1-.071-.324.242.242,0,0,1,.032-.04,11.808,11.808,0,0,0,2.179-3.011.235.235,0,1,1,.419.212,12.278,12.278,0,0,1-2.267,3.131A.234.234,0,0,1,4832.806,830.85Z" transform="translate(-4832.697 -827.345)" fill="#fff"/>
      </g>
      <g id="Raggruppa_2" data-name="Raggruppa 2" transform="translate(19.952 2.408)">
        <path id="Tracciato_3" data-name="Tracciato 3" d="M4830.967,780.9a.237.237,0,0,1-.107-.189,11.715,11.715,0,0,0-5.379-9.361.235.235,0,0,1,.24-.4l.013.008a12.185,12.185,0,0,1,5.6,9.737.235.235,0,0,1-.226.245.238.238,0,0,1-.136-.036Z" transform="translate(-4825.365 -770.913)" fill="#fff"/>
      </g>
      <g id="Raggruppa_3" data-name="Raggruppa 3" transform="translate(3.484 0.529)">
        <path id="Tracciato_4" data-name="Tracciato 4" d="M4765.194,769.957a.236.236,0,0,1-.072-.325,12.106,12.106,0,0,1,10.308-5.6.235.235,0,1,1,0,.47,11.64,11.64,0,0,0-9.909,5.384.234.234,0,0,1-.324.071Z" transform="translate(-4765.085 -764.032)" fill="#fff"/>
      </g>
      <g id="Raggruppa_4" data-name="Raggruppa 4" transform="translate(1.674 13.748)">
        <path id="Tracciato_5" data-name="Tracciato 5" d="M4764,821.6a12.122,12.122,0,0,1-5.533-8.919.235.235,0,0,1,.467-.051,11.7,11.7,0,0,0,12.654,10.376.235.235,0,1,1,.048.468h-.006A12.052,12.052,0,0,1,4764,821.6Z" transform="translate(-4758.461 -812.424)" fill="#fff"/>
      </g>
      <g id="Raggruppa_5" data-name="Raggruppa 5" transform="translate(7.895 4.697)">
        <path id="Tracciato_6" data-name="Tracciato 6" d="M4781.34,782.147a.214.214,0,0,1-.035-.027.234.234,0,0,1-.01-.332h0a7.949,7.949,0,0,1,12.181.733.235.235,0,1,1-.372.287l-.006-.008a7.477,7.477,0,0,0-11.461-.689A.235.235,0,0,1,4781.34,782.147Z" transform="translate(-4781.23 -779.291)" fill="#fff"/>
      </g>
      <g id="Raggruppa_6" data-name="Raggruppa 6" transform="translate(0 7.385)">
        <path id="Tracciato_7" data-name="Tracciato 7" d="M4752.432,794.536c-.107-.158-.128-.286-.064-.385a.419.419,0,0,1,.246-.142.316.316,0,0,1,.168.045.188.188,0,0,0,.2.006,1.77,1.77,0,0,0,.579-.563,4.082,4.082,0,0,0,.407-1.69,4.1,4.1,0,0,1,.461-1.759,2.1,2.1,0,0,1,.691-.689,1.435,1.435,0,0,1,.939-.218,1,1,0,0,1,.383.131.713.713,0,0,1,.355.467.271.271,0,0,1-.031.209c-.062.1-.188.139-.377.122a.174.174,0,0,1-.076-.028.169.169,0,0,1-.054-.045.506.506,0,0,0-.092-.1.154.154,0,0,0-.117-.013,1.568,1.568,0,0,0-1.02.717,1.365,1.365,0,0,0-.188.44q-.009.046-.053.423t-.119,1.076a3.314,3.314,0,0,1-.414,1.426,1.962,1.962,0,0,1-.7.653,1.426,1.426,0,0,1-.538.112.8.8,0,0,1-.482-.091A.373.373,0,0,1,4752.432,794.536Z" transform="translate(-4752.332 -789.132)" fill="#fff"/>
        <path id="Tracciato_8" data-name="Tracciato 8" d="M4762.874,798.226a2.3,2.3,0,0,1-.449-.645,4.185,4.185,0,0,1-.282-.778,3.993,3.993,0,0,1-.119-.756,1.956,1.956,0,0,1,.04-.582,3.788,3.788,0,0,1,.307-.8c.13-.246.247-.45.351-.612a3.21,3.21,0,0,1,.866-.94,2.927,2.927,0,0,1,.872-.428,3.641,3.641,0,0,1,1.042-.152,1.315,1.315,0,0,1,.664.165.734.734,0,0,1,.295.366c.022.041,0,.106-.053.195a.418.418,0,0,1-.172.155.321.321,0,0,1-.257,0,3.607,3.607,0,0,0-.394-.138,1.407,1.407,0,0,0-.574,0,2.164,2.164,0,0,0-.421.114,2.228,2.228,0,0,0-.462.244,3.111,3.111,0,0,0-.478.405,3.653,3.653,0,0,0-.461.592,2.98,2.98,0,0,0-.427,1.574c.018.156.036.3.059.428s.042.237.062.325.04.176.061.262a1.326,1.326,0,0,0,.145.326,1.666,1.666,0,0,0,.114.162c.05.063.09.114.12.154a.242.242,0,0,1,0,.26.393.393,0,0,1-.214.163.189.189,0,0,1-.212-.033Z" transform="translate(-4759.372 -791.601)" fill="#fff"/>
        <path id="Tracciato_9" data-name="Tracciato 9" d="M4769.418,800.165a.947.947,0,0,1-.106-.084c-.042-.037-.086-.076-.134-.116l-.133-.116a.881.881,0,0,0-.093-.074.84.84,0,0,0-.231-.107,5.968,5.968,0,0,0-.595.631,11.651,11.651,0,0,0-.714.96.9.9,0,0,1-.215-.086.739.739,0,0,1-.127-.1.368.368,0,0,1-.089-.145.467.467,0,0,1-.017-.193.569.569,0,0,1,.1-.239,1.354,1.354,0,0,1,.107-.144,1.474,1.474,0,0,0,.094-.122c.035-.054.1-.144.2-.27s.219-.273.356-.442.285-.352.449-.548.323-.394.477-.592.3-.386.433-.563.241-.329.323-.458l.057-.088a.109.109,0,0,1,.146-.052h0a.95.95,0,0,1,.127.061l.183.2a.258.258,0,0,1,.058.146.541.541,0,0,1-.022.172,1.086,1.086,0,0,1-.077.184c-.033.062-.066.121-.1.175a1.669,1.669,0,0,1-.128.167l-.192.235-.2.253a2.639,2.639,0,0,0-.164.223.181.181,0,0,0,0,.231,1.255,1.255,0,0,0,.281.227l.088.057a1.708,1.708,0,0,0,.167.1.984.984,0,0,1,.1.054l.03.019q.351-.336.742-.776t.864-1.018c.131-.151.238-.2.319-.159l.067.042a.7.7,0,0,1,.206.189.221.221,0,0,1,.036.195c-.08.114-.2.269-.354.463s-.33.411-.524.65-.4.49-.613.754-.422.52-.623.769-.384.483-.548.7-.294.4-.388.55c-.051.078-.1.154-.141.227s-.083.145-.123.217a.2.2,0,0,1-.1.078.119.119,0,0,1-.116-.007.549.549,0,0,1-.3-.427,1,1,0,0,1,.2-.555c.019-.029.044-.068.08-.115l.108-.153c.038-.055.074-.106.108-.154s.061-.086.08-.115.068-.1.129-.177.125-.161.195-.248.136-.171.2-.252.108-.144.135-.188Z" transform="translate(-4762.964 -795)" fill="#fff"/>
        <path id="Tracciato_10" data-name="Tracciato 10" d="M4776.5,806.675c-.107.167-.249.37-.427.609s-.392.517-.643.833q-.333.42-.581.752c-.022.029-.044.057-.064.086-.179.242-.324.449-.434.62l-.12.188c-.041.061-.077.126-.113.192a.324.324,0,0,1-.414.015c-.206-.145-.262-.31-.172-.495.019-.04.041-.08.061-.122s.055-.1.084-.154c.054-.094.112-.19.174-.288.107-.167.25-.366.426-.6s.394-.505.649-.819.474-.585.651-.814.319-.426.426-.593c.042-.064.08-.128.117-.19s.073-.128.109-.195a.308.308,0,0,1,.34.021.686.686,0,0,1,.228.259.107.107,0,0,1,.058.007c.015.009.006.038-.026.088a.357.357,0,0,0-.054.069c-.013.02-.017.031-.012.034l0,.042c-.039.072-.081.146-.125.22S4776.545,806.6,4776.5,806.675Z" transform="translate(-4767.708 -801.145)" fill="#fff"/>
        <path id="Tracciato_11" data-name="Tracciato 11" d="M4781.128,810.221a1.948,1.948,0,0,1-.7.653,1.427,1.427,0,0,1-.539.112.811.811,0,0,1-.481-.091.37.37,0,0,1-.111-.1c-.106-.158-.127-.286-.065-.384a.427.427,0,0,1,.247-.142.328.328,0,0,1,.168.046.187.187,0,0,0,.2.006,1.782,1.782,0,0,0,.579-.563,3.546,3.546,0,0,0,.376-1.393c.011-.1.021-.194.03-.3a7.027,7.027,0,0,1,.148-.951,2.7,2.7,0,0,1,.313-.808,2.131,2.131,0,0,1,.644-.66l.049-.029a1.447,1.447,0,0,1,.881-.225.5.5,0,0,1,.058.007.994.994,0,0,1,.383.132.713.713,0,0,1,.356.466.267.267,0,0,1-.03.209c-.063.1-.189.139-.378.122a.172.172,0,0,1-.076-.028.183.183,0,0,1-.055-.045.5.5,0,0,0-.091-.1.152.152,0,0,0-.117-.012,1.572,1.572,0,0,0-1.02.717,1.4,1.4,0,0,0-.188.44c0,.018-.01.068-.02.15s-.02.159-.033.273q-.043.376-.119,1.076A3.34,3.34,0,0,1,4781.128,810.221Z" transform="translate(-4771.857 -800.948)" fill="#fff"/>
        <path id="Tracciato_12" data-name="Tracciato 12" d="M4787.659,820.081a.4.4,0,0,1-.214.163.191.191,0,0,1-.213-.033l-.021-.014a2.226,2.226,0,0,1-.4-.546c-.018-.032-.034-.066-.05-.1a4.235,4.235,0,0,1-.236-.608c-.017-.056-.031-.113-.047-.17a3.949,3.949,0,0,1-.117-.755,1.908,1.908,0,0,1,.039-.582,3.764,3.764,0,0,1,.308-.8c.129-.245.247-.449.351-.611a3.219,3.219,0,0,1,.866-.94,2.919,2.919,0,0,1,.871-.428,3.637,3.637,0,0,1,1.042-.152,1.312,1.312,0,0,1,.663.165.742.742,0,0,1,.176.156.729.729,0,0,1,.12.21c.022.041,0,.106-.053.195a.412.412,0,0,1-.17.155.312.312,0,0,1-.239,0l-.019-.007a3.49,3.49,0,0,0-.4-.138,1.394,1.394,0,0,0-.573,0,2.154,2.154,0,0,0-.421.114,2.183,2.183,0,0,0-.462.244,3.008,3.008,0,0,0-.478.4,3.625,3.625,0,0,0-.462.591,2.989,2.989,0,0,0-.426,1.574c.017.147.034.281.055.4l0,.024c.022.128.043.236.062.325s.04.175.06.261a.874.874,0,0,0,.062.166c.022.049.051.1.083.16a1.527,1.527,0,0,0,.115.161c.051.062.088.115.119.155A.24.24,0,0,1,4787.659,820.081Z" transform="translate(-4777.061 -807.571)" fill="#fff"/>
        <path id="Tracciato_13" data-name="Tracciato 13" d="M4798.149,821.183a.124.124,0,0,1-.114.063c-.118-.021-.258-.052-.416-.1s-.343-.1-.552-.161-.392-.117-.552-.161-.3-.075-.415-.1a2.031,2.031,0,0,0-.249.266c-.108.132-.24.307-.394.526a.909.909,0,0,0,.243.219,1.481,1.481,0,0,0,.152.081l.218.1.219.1a1.346,1.346,0,0,1,.152.08.806.806,0,0,1,.3.315.6.6,0,0,1-.021.257.107.107,0,0,1-.1.049l-.053.007a.922.922,0,0,0-.117.029.206.206,0,0,1-.186-.035,5.4,5.4,0,0,1-.595-.319,2.3,2.3,0,0,0-.61-.266,4.064,4.064,0,0,0-.69.772,1.041,1.041,0,0,0-.158.377,2.1,2.1,0,0,0,.858.849c.034.022.067.043.1.06a1.214,1.214,0,0,1,.108.065.24.24,0,0,0,.161.024.229.229,0,0,1,.146.016.068.068,0,0,0,.023.01.058.058,0,0,1,.023.01c.118.076.127.229.025.463,0,.01-.011.021-.016.032a.13.13,0,0,1-.014.032.331.331,0,0,1-.179.14.271.271,0,0,1-.221-.021c-.043-.028-.089-.055-.134-.082s-.091-.053-.135-.081a6.148,6.148,0,0,1-1.188-.967.954.954,0,0,1-.229-.469.785.785,0,0,1,.063-.52c.059-.114.116-.223.173-.325s.114-.2.177-.3c.022-.035.044-.069.067-.1m0,0v0h0q.06-.09.123-.172.1-.129.193-.245a.421.421,0,0,1-.029-.361l.021-.031a.233.233,0,0,1,.187-.047.265.265,0,0,0,.2-.037c.052-.059.1-.121.148-.185q.123-.161.356-.477-.357-.333-.206-.568a.471.471,0,0,1,.476-.173l.508.094.085.016a2.637,2.637,0,0,1,.395.066c.139.033.288.074.451.123.145.045.285.09.424.136l.418.143a.353.353,0,0,1,.093.049,1.134,1.134,0,0,1,.365.451c-.008.023-.021.068-.035.135a.524.524,0,0,1-.043.139Z" transform="translate(-4782.267 -811.437)" fill="#fff"/>
        <path id="Tracciato_14" data-name="Tracciato 14" d="M4806.68,822.968a.753.753,0,0,1-.053.075.581.581,0,0,1-.052.056.171.171,0,0,1-.217.016.529.529,0,0,1-.234-.4.8.8,0,0,1,.1-.483q.152-.286.347-.588.311-.486,1.05-1.5.312-.423.551-.763c.158-.227.293-.426.4-.6l.089-.14-.1-.061c-.058-.038-.127-.078-.207-.122s-.17-.088-.273-.133c-.061-.025-.107-.043-.141-.055a.624.624,0,0,1-.133-.069,1.072,1.072,0,0,1-.466-.569,1.874,1.874,0,0,1,.039-.255.185.185,0,0,1,.122-.078c.094.026.2.061.317.1a4.074,4.074,0,0,1,.419.19,3.415,3.415,0,0,0,1.108.378,2.479,2.479,0,0,0,.537.458,3.085,3.085,0,0,0,.686.324c.033.014.086.033.162.056l.233.072a1.47,1.47,0,0,1,.379.17.478.478,0,0,1,.045.035.409.409,0,0,0,.046.034q.11.071.059.152l-.02.029q.2.128.115.26a.437.437,0,0,1-.449.149q-.273-.092-.682-.256t-1.06-.445q-.667.88-1.185,1.607t-.918,1.353c-.1.158-.2.312-.291.463s-.187.3-.279.46Z" transform="translate(-4791.424 -809.605)" fill="#fff"/>
        <path id="Tracciato_15" data-name="Tracciato 15" d="M4815.714,829.78a1.25,1.25,0,0,0-.146.317c-.031.108-.07.226-.118.355a.965.965,0,0,1-.088.184.229.229,0,0,1-.17.12,1.16,1.16,0,0,1-.277-.022.241.241,0,0,1-.1-.035.261.261,0,0,1-.069-.1,1.533,1.533,0,0,1-.072-.171,1.052,1.052,0,0,1-.047-.186.271.271,0,0,1,.007-.141c.221-.335.452-.667.69-1l.8-1.109q.116-.166.179-.248c.042-.056.075-.1.1-.131l.046-.074c.011-.017.029-.042.051-.071s.053-.073.089-.13.092-.14.17-.249q-.232-.107-.488-.219a2.868,2.868,0,0,1-.359-.178,1.84,1.84,0,0,1-.388-.311.261.261,0,0,1,0-.339.3.3,0,0,1,.3-.116,1.525,1.525,0,0,1,.611.271c.142.091.315.191.518.3s.467.248.79.413a2.44,2.44,0,0,0,.364.145c.11.033.216.061.319.084a2.585,2.585,0,0,1,.313.1,1.987,1.987,0,0,1,.357.188.334.334,0,0,1,.115.2.318.318,0,0,1-.021.251.3.3,0,0,1-.213.154.808.808,0,0,1-.236-.006,1.71,1.71,0,0,1-.238-.043,2.215,2.215,0,0,1-.266-.087q-.146-.057-.337-.154c-.129-.064-.279-.146-.452-.243-.14.174-.282.355-.431.544s-.3.38-.444.572-.291.381-.43.565-.27.361-.393.532Z" transform="translate(-4797.604 -815.874)" fill="#fff"/>
        <path id="Tracciato_16" data-name="Tracciato 16" d="M4812.914,839.831a2.221,2.221,0,0,1,.6-.581,3.746,3.746,0,0,0,.743-.625.231.231,0,0,0-.011-.194c-.034-.1-.042-.162-.023-.191a.12.12,0,0,1,.076-.055.284.284,0,0,1,.2.033c.1.034.161.037.192.008q.363-.276,1.3-1.1c.272-.241.515-.448.724-.621s.4-.317.563-.433a.214.214,0,0,1,.25.015.336.336,0,0,1,.141.184,1.017,1.017,0,0,1-.074.7l-.149.33q-.076.168-.156.325-.371.986-.635,1.819t-.433,1.534a.751.751,0,0,1-.088.234.4.4,0,0,1-.29.177.412.412,0,0,1-.236-.006.729.729,0,0,1-.084-.874,5.78,5.78,0,0,0,.355-1.091l-.53-.277a.992.992,0,0,0-.562-.111q-.111.094-.294.258c-.121.109-.268.248-.438.415a5.888,5.888,0,0,1-.766.661.171.171,0,0,1-.2-.006l-.049-.031a.173.173,0,0,1-.045-.05q-.2-.229-.116-.386Zm3.129-.944q.078-.156.154-.322c.049-.11.1-.227.141-.35s.078-.227.119-.339.08-.225.119-.339c-.412.318-.8.643-1.166.977a5.93,5.93,0,0,1,.633.374Z" transform="translate(-4796.315 -823.225)" fill="#fff"/>
        <path id="Tracciato_17" data-name="Tracciato 17" d="M4792.737,792.573a.147.147,0,0,1-.083.065l-.5.023-.345.016-.167.006c-.1,0-.191,0-.278,0a2.482,2.482,0,0,1-.366-.032.153.153,0,0,1-.068-.023.192.192,0,0,1-.071-.17l-.015-.183.069-.109q.137-.213.323-.477c.1-.144.217-.3.346-.469l.091-.119c.108-.14.208-.272.3-.393q.364-.48.535-.748.082-.128.152-.247c.045-.08.089-.159.131-.239a.263.263,0,0,1,.2.04q.188.12.129.277c-.021.033-.043.067-.064.105s-.045.078-.073.121q-.122.191-.289.43c-.111.159-.24.338-.385.536-.073.1-.142.192-.206.281-.079.108-.149.21-.214.305q-.123.181-.222.331l-.082.129-.088.139a1.265,1.265,0,0,0,.177.021c.087.005.191.007.315,0l.191-.005h.109a1.385,1.385,0,0,1,.191.008.75.75,0,0,0,.093.046.72.72,0,0,1,.1.048.179.179,0,0,1,.093.171A.278.278,0,0,1,4792.737,792.573Z" transform="translate(-4780.327 -789.375)" fill="#fff"/>
        <path id="Tracciato_18" data-name="Tracciato 18" d="M4797.955,797.588q.113-.47.29-1.028c.1-.32.221-.666.357-1.036.022-.06.045-.121.069-.182s.07-.143.1-.218.068-.149.1-.221a.689.689,0,0,0,.049-.469.219.219,0,0,0-.1-.124.142.142,0,0,0-.167-.01c-.048.034-.1.072-.154.114s-.144.112-.223.177-.153.126-.237.2-.161.139-.248.217q-.625.552-.868.737c-.021.019-.065.017-.129-.006a.2.2,0,0,0-.132-.022.08.08,0,0,0-.05.037c-.014.02-.008.063.015.128a.156.156,0,0,1,.007.129,2.489,2.489,0,0,1-.5.419,1.506,1.506,0,0,0-.4.389l-.028.045q-.053.1.078.258a.093.093,0,0,0,.031.034l.031.02a.114.114,0,0,0,.136,0,4,4,0,0,0,.514-.443q.171-.169.293-.278c.082-.073.147-.13.2-.173a.668.668,0,0,1,.377.075l.355.185a3.851,3.851,0,0,1-.239.731.488.488,0,0,0,.057.585.273.273,0,0,0,.158,0,.3.3,0,0,0,.047-.011.254.254,0,0,0,.147-.108A.573.573,0,0,0,4797.955,797.588Zm.081-1.854c-.03.083-.062.161-.095.235s-.068.145-.1.216a4.028,4.028,0,0,0-.424-.251c.214-.2.439-.386.678-.573l.1-.081c-.025.076-.052.152-.08.227-.006.017-.012.036-.019.054q-.031.086-.06.173Z" transform="translate(-4783.851 -792.871)" fill="#fff"/>
        <path id="Tracciato_19" data-name="Tracciato 19" d="M4805.115,797.239q.238-.418.53-.875.5-.78,1.338-1.894l1.417-1.873q.11-.157.392.022a.537.537,0,0,1,.132.148,1.171,1.171,0,0,1,.132.281c-.02.2-.056.455-.111.759s-.136.66-.24,1.071-.183.776-.266,1.137-.149.683-.2.964l2.34-3.006c.074-.092.175-.1.307-.011a.725.725,0,0,1,.141.12l.116.127a.185.185,0,0,1,.03.164l-1.466,1.852c-.294.372-.555.713-.785,1.023s-.43.6-.6.862l-.162.254a3,3,0,0,0-.158.278.307.307,0,0,1-.216.136.353.353,0,0,1-.259-.045.535.535,0,0,1-.184-.554c.018-.2.053-.445.1-.728s.109-.593.176-.931.144-.7.229-1.078.175-.775.267-1.179c.009-.036.007-.058-.008-.068-.035-.022-.079,0-.133.061-.132.164-.269.345-.408.542s-.281.4-.422.617-.279.429-.419.645l-.391.611c-.12.187-.237.376-.354.568s-.231.389-.347.591l-.02.03a.322.322,0,0,1-.295.185.183.183,0,0,1-.143-.019.32.32,0,0,1-.105-.129l-.1-.156a.227.227,0,0,1,0-.252Z" transform="translate(-4790.569 -791.597)" fill="#fff"/>
        <path id="Tracciato_20" data-name="Tracciato 20" d="M4827.425,811.008c.158-.279.335-.57.53-.875q.5-.78,1.338-1.894l1.418-1.874c.074-.1.2-.1.391.022a.523.523,0,0,1,.133.148,1.156,1.156,0,0,1,.132.281c-.019.2-.056.455-.112.759s-.134.66-.24,1.071-.182.776-.265,1.137-.15.683-.2.964l2.341-3.006c.072-.092.174-.1.307-.011a.781.781,0,0,1,.141.12l.117.127a.182.182,0,0,1,.029.164l-1.466,1.852q-.441.558-.784,1.023t-.6.862l-.163.254a3.035,3.035,0,0,0-.158.278.307.307,0,0,1-.216.136.347.347,0,0,1-.257-.045.535.535,0,0,1-.185-.554c.019-.2.052-.445.1-.728s.108-.593.175-.93.144-.7.229-1.078.174-.775.267-1.179c.008-.036.007-.058-.008-.068-.035-.022-.079,0-.132.06q-.2.246-.41.542t-.421.617q-.21.322-.418.645l-.392.612q-.179.28-.354.568t-.349.591l-.019.03a.321.321,0,0,1-.294.185.185.185,0,0,1-.144-.019.312.312,0,0,1-.1-.129l-.1-.156a.226.226,0,0,1,0-.252Z" transform="translate(-4806.783 -801.604)" fill="#fff"/>
        <path id="Tracciato_21" data-name="Tracciato 21" d="M4822.893,808.322a2.993,2.993,0,0,1-.569.305,2.576,2.576,0,0,1-.575.161,1.7,1.7,0,0,1-.548,0,1.3,1.3,0,0,1-.487-.188,1.1,1.1,0,0,1-.3-.305,1.458,1.458,0,0,1-.212-.479,1.757,1.757,0,0,1-.042-.582,1.374,1.374,0,0,1,.225-.619,2.475,2.475,0,0,1,.452-.5,3.842,3.842,0,0,1,.632-.452,2.357,2.357,0,0,1,.661-.262.692.692,0,0,1,.539.065.244.244,0,0,1,.076.069c.016.024.033.052.051.084s.037.073.061.122a1.682,1.682,0,0,0,.11.185c.032.048.068.1.11.159s.1.125.159.2a1.006,1.006,0,0,1,.216.472,1.654,1.654,0,0,1,.012.5,1.8,1.8,0,0,1-.113.446,2.051,2.051,0,0,1-.154.312A.944.944,0,0,1,4822.893,808.322Zm-.3-.834a1.921,1.921,0,0,0,.183-.552.309.309,0,0,0-.117-.329.245.245,0,0,0-.149-.018c-.069.007-.142.018-.216.032s-.146.027-.212.037a.227.227,0,0,1-.12,0,.3.3,0,0,1-.1-.149.316.316,0,0,0-.072-.129.187.187,0,0,0-.178-.005.84.84,0,0,0-.21.125,1.518,1.518,0,0,0-.2.193,1.669,1.669,0,0,0-.152.2,1.128,1.128,0,0,0-.163.384,1.312,1.312,0,0,0-.03.355.85.85,0,0,0,.057.276.324.324,0,0,0,.09.142.655.655,0,0,0,.359.089,1.494,1.494,0,0,0,.447-.072,1.819,1.819,0,0,0,.429-.2,1.008,1.008,0,0,0,.312-.3Z" transform="translate(-4801.625 -800.931)" fill="#fff"/>
      </g>
      <g id="Raggruppa_7" data-name="Raggruppa 7" transform="translate(8.888 22.138)">
        <path id="Tracciato_22" data-name="Tracciato 22" d="M4784.974,843.567a.235.235,0,0,1,.23-.409c.167.082.34.16.514.233a.235.235,0,0,1-.183.433h0c-.182-.076-.361-.158-.536-.243Z" transform="translate(-4784.867 -843.134)" fill="#fff"/>
      </g>
      <g id="Raggruppa_8" data-name="Raggruppa 8" transform="translate(10.501 22.767)">
        <path id="Tracciato_23" data-name="Tracciato 23" d="M4790.877,845.87a.235.235,0,0,1,.194-.423,10.494,10.494,0,0,0,4.217.381.235.235,0,0,1,.069.465l-.016,0a10.966,10.966,0,0,1-4.405-.4A.22.22,0,0,1,4790.877,845.87Z" transform="translate(-4790.769 -845.437)" fill="#fff"/>
      </g>
      <path id="Tracciato_24" data-name="Tracciato 24" d="M4759.562,815.1" transform="translate(-4757.586 -800.623)" fill="#fff"/>
      <path id="Tracciato_25" data-name="Tracciato 25" d="M4808.307,762.312c-.021-.278-2.749-.269-3.248-.067-1.033.417-1.308,1.6-1.4,2.644a6.5,6.5,0,0,0,3.354-1.486s-.442,1.375-3.948,2.167l-.729.479a.071.071,0,0,0-.019.1.07.07,0,0,0,.073.031c2.111-.384,3.3-.569,4.1-1.127,1.7-1.187,1.85-2.353,1.821-2.742" transform="translate(-4788.651 -762.098)" fill="#fff"/>
    </g>
  </g>
</svg>
