<svg xmlns="http://www.w3.org/2000/svg" width="396.459" height="122.242" viewBox="0 0 396.459 122.242">
  <g id="hero-content-bg" transform="translate(21659.307 21011.533)">
    <path id="Path_8596" data-name="Path 8596" d="M153.187,0,443.272-1c29.374,0,53.187,21,53.187,46.912s-23.813,46.912-53.187,46.912l-290.085,1c-29.374,0-53.187-21-53.187-46.912S123.813,0,153.187,0Z" transform="translate(-21759.307 -20994.004)" fill="#aad0d5"/>
    <g id="Group_2857" data-name="Group 2857" transform="translate(-21551.434 -21005.346)">
      <g id="Group_2826" data-name="Group 2826" transform="translate(-278 -118.04)">
        <path id="Path_3389" data-name="Path 3389" d="M772.673,620.631a10.075,10.075,0,0,0-11.766.851,16.431,16.431,0,0,0-16.071-11.935c-9.35.38-11.888,7.224-15.509,14.072-1.538-.759-2.392-2.484-3.91-3.393-2.741-1.64-6.7-1.635-9.685-.785a14.394,14.394,0,0,0-8.913,7.508,10.1,10.1,0,0,0-11-3.537,9.992,9.992,0,0,0-5.523,4.7h86.77A10.073,10.073,0,0,0,772.673,620.631Z" transform="translate(-269.326 -497.684)" fill="#aad0d5"/>
        <path id="Path_3343" data-name="Path 3343" d="M1462.281,966.348a32.341,32.341,0,0,0-14.167,3.246,18.139,18.139,0,0,0-31.855,6.286h69.005A32.371,32.371,0,0,0,1462.281,966.348Z" transform="translate(-1080.828 -841.396)" fill="#61b0bc"/>
        <path id="Path_8597" data-name="Path 8597" d="M1462.281,966.348a32.341,32.341,0,0,0-14.167,3.246,18.139,18.139,0,0,0-31.855,6.286h69.005A32.371,32.371,0,0,0,1462.281,966.348Z" transform="translate(-1170.828 -845.787)" fill="#aad0d5"/>
      </g>
    </g>
    <path id="Path_8598" data-name="Path 8598" d="M1439.242,972.067a32.34,32.34,0,0,0,14.167-3.246,18.138,18.138,0,0,0,31.855-6.287h-69A32.37,32.37,0,0,0,1439.242,972.067Z" transform="translate(-22870.902 -21865.172)" fill="#aad0d5"/>
  </g>
</svg>
