<svg xmlns="http://www.w3.org/2000/svg" width="117.493" height="24.845" viewBox="0 0 117.493 24.845"><g transform="translate(-435.145 -36.71)"><path d="M61.218,27.128c-.174-4.582,1.856-13.978,1.856-13.978.116-.609-3.335-2.987-3.654-1.972-1.1,3.306-6.931,11.31-7.221,10.614a69.736,69.736,0,0,1-2.32-10.614c-.145-1.16-4.031-.087-4.089.464a114.261,114.261,0,0,1-1.8,12.412c-10.121,1.073-1.856,12.992,2,5.6a16.634,16.634,0,0,0,1.247-3.8,17.161,17.161,0,0,1,1.711.754c.145-1.392-.116-1.769-1.421-2.175.551-2.813.957-5.655,1.392-8.439a69.311,69.311,0,0,0,2.349,8.12c1.1,2.987,5.974-4.611,7.047-5.742a53.481,53.481,0,0,0-.725,6.873c-.145,6.409,3.19,8.294,8.468,5.394a6.869,6.869,0,0,0,.058-1.015C63.538,30.782,61.421,32.058,61.218,27.128ZM43.7,25.243c-.261,1.073-1.218,5.046-2.755,4.785C39.323,29.767,38.482,25.417,43.7,25.243ZM75.109,19.5a5.128,5.128,0,0,0-.9-1.45c-1.218-1.276-3.074-1.218-4.756-.348C63.886,20.545,64.176,31.8,68.787,32c3.19.145,5.336-2.465,6.293-5.51.551-1.8,1.363-5.394-.841-6.322-1.972-.812-3.741,2.9.029,3.016.464,1.972-.957,6.351-3.625,6.7C66.9,30.347,68.033,16.688,75.109,19.5Zm5.742,9.454c-1.044.29-1.247-5.017.174-10.266.116-.377-.522-.87-3.161-1.682-3.77,14.3,3.074,21.837,6,6.67-.319,7.279,4.524,9.106,9.773,6l-.261-.638c-6.7,3.654-7.888-1.015-5.684-10.266.087-.377-.551-.87-3.161-1.682C83.838,19.356,82.214,28.607,80.851,28.955Zm26.361.232c-6.7,3.654-7.888-1.015-5.684-10.266.058-.319-1.624-.986-2.378-.957-1.363.029-4.147,7.453-5.191,10.5a41.985,41.985,0,0,1,1.885-9.367c.116-.348-.551-.841-3.161-1.682-1.305,4.205-1.769,10.759-.957,13.6.232.87,2.262,1.276,2.436.783,1.363-4.118,2.233-7.105,3.364-8.932,0,.522-1.015,13.427,9.947,6.96Z" transform="translate(396 26.155)" fill="#36aeea"/><path d="M56.39,29.651c-5.771,3.132-7.453.116-6.438-6.67a37.643,37.643,0,0,1,.928-4.234,12.205,12.205,0,0,0,3.567-.116l-.058-1.276a14.387,14.387,0,0,1-3.19.232c.261-.957.522-1.914.783-2.9.116-.377-.29-1.392-2.929-2.233-.435,1.218-.986,2.958-1.508,4.814-.986-.145-1.653-.29-1.653-.29l.029.783s.551.174,1.421.406a28.24,28.24,0,0,0-.812,4.147c-.928,7.714,2.61,12.412,10.121,7.975Zm4.234-10.034c2.726-1.1,1.305,10.788-1.972,9.193C57.057,28.027,57.985,20.661,60.624,19.617Zm11.252,9.6c-6.7,3.654-7.888-1.015-5.684-10.266.087-.377-.551-.87-3.161-1.682-.116.406-.232.783-.348,1.189-.029-.058-.058-.087-.087-.145-1.015-1.334-2.668-1.363-4.2-.58-5.046,2.581-5.278,13.833-1.189,14.239,2.378.261,4.176-1.479,5.278-3.857,1.276,3.538,4.553,4.756,9.657,1.769Zm7.975.435c-6.7,3.654-7.888-1.044-5.713-10.3.087-.348-.522-.841-3.161-1.653-3.1,10.237.2,17.835,9.135,12.586ZM74.6,18.051c.348-1.247.928-3.016,1.247-4.263.087-.377-.319-1.392-2.929-2.233C72.92,11.555,70.368,16.92,74.6,18.051ZM93.684,29.187C86.985,32.841,85.8,28.172,88,18.921c.058-.319-1.624-.986-2.378-.957-1.363.029-4.147,7.453-5.191,10.5a41.985,41.985,0,0,1,1.885-9.367c.116-.348-.551-.841-3.161-1.682-1.305,4.205-1.769,10.759-.957,13.6.232.87,2.262,1.276,2.436.783C82,27.679,82.867,24.692,84,22.865c0,.522-1.015,13.427,9.947,6.96Zm-2.378-4.263c.609,5.046,3.19,12.992-2.842,8.816l-.609.551c6.467,4.669,8.439,1.131,7.54-6.148,0-.145,2.871-5.22,2.117-8.671-.319-1.392-1.827-2.059-3.1-2.233C90.871,16.746,90.987,22.227,91.306,24.924ZM95.163,26.9c-.725-4.959.435-7.366,1.1-7.134C96.874,19.936,97.106,22.285,95.163,26.9Z" transform="translate(455 25.155)" fill="#95a5ad"/></g></svg>